# xmcd
#
# Track frame offsets:
#	150
#	31502
#	77325
#	132656
#	199640
#
# Disc length: 3214 seconds
#
# Revision: 1
# Processed by: cddbd v1.5.2PL0 Copyright (c) Steve Scherf et al.
# Submitted via: audiograbber 1.83.01
#
DISCID=320c8c05
DTITLE=Grateful Dead - 80-12-31 Oakland Auditorium Arena, Oakland CA
DYEAR=1900
DGENRE=
TTITLE0=Sugar Magnolia
TTITLE1=Scarlet Begonias
TTITLE2=Fire On The Mountain
TTITLE3=Estimated Prophet
TTITLE4=Drums
EXTD=
EXTT0=
EXTT1=
EXTT2=
EXTT3=
EXTT4=
PLAYORDER=
